<?xml version="1.0" ?><!DOCTYPE svg  PUBLIC '-//W3C//DTD SVG 1.1//EN'  'http://www.w3.org/Graphics/SVG/1.1/DTD/svg11.dtd'><svg enable-background="new 0 0 700 700" height="700px" id="Layer_1" version="1.1" viewBox="0 0 700 700" width="700px" xml:space="preserve" xmlns="http://www.w3.org/2000/svg" xmlns:xlink="http://www.w3.org/1999/xlink"><circle cx="350" cy="349.999" fill="#4A97CC" r="350"/><path d="M570.323,314.078l0.012-0.009l-0.413-0.413c-0.01-0.01-0.019-0.021-0.027-0.028v0.001L349.812,93.545  L130.107,313.252c-0.001-0.001-0.001-0.001-0.002-0.001c-0.018,0.018-0.034,0.037-0.053,0.056l-0.261,0.261l0.007,0.007  c-18.82,19.16-18.724,49.944,0.307,68.975c19.031,19.031,49.815,19.128,68.976,0.308l0.009,0.01l0.314-0.316l102.491-102.493  l0.001,277.518h0.064c0.02,27,21.912,48.882,48.916,48.882c27.006,0,48.898-21.882,48.918-48.882h0.101l0.002-275.352l100.7,100.703  c-0.001,0.001-0.001,0.001-0.002,0.001c0.02,0.021,0.038,0.036,0.057,0.055l0.386,0.387l0.01-0.01  c19.17,18.693,49.859,18.559,68.848-0.431C588.884,363.938,589.02,333.248,570.323,314.078z" fill="#FFFFFF"/></svg>